PathFileType	4	(X/Y/Z)	OpenSim_Sub09_CSBaseline_Accel.trc
DataRate	CameraRate	NumFrames	NumMarkers	Units	OrigDataRate	OrigDataStartFrame	OrigNumFrames
100	100	34	8	m	100	4381	5840
Frame#	Time	torso_imu_offset_imu	pelvis_imu_offset_imu	tibia_r_imu_offset_imu	femur_r_imu_offset_imu	tibia_l_imu_offset_imu	femur_l_imu_offset_imu	toes_r_imu_offset_imu	toes_l_imu_offset_imu
				X1	Y1	Z1	X2	Y2	Z2	X3	Y3	Z3	X4	Y4	Z4	X5	Y5	Z5	X6	Y6	Z6	X7	Y7	Z7	X8		Y8	Z8	

4381	43.80000000	7.72727205	-0.83913851	6.04598077	8.50134485	0.36056450	2.88179678	9.46974740	2.32613360	0.38454666	8.96385978	-0.71847072	0.10972059	4.15441214	-6.08819130	3.28984907	8.46888998	1.33667588	0.28924149	5.61364693	-2.18727659	7.91001608	5.44713273	-0.03019689	13.00080055
4382	43.81000000	7.74840602	-0.80749447	6.04153739	8.45609583	0.48623297	2.90715077	9.26528165	2.27349561	0.40565661	8.95163683	-0.73264005	-0.10405451	4.92406135	-6.06812826	2.85768576	8.28252117	1.13881723	0.08987167	5.67419736	-2.29199505	7.78856210	5.90819242	-0.31626827	13.32530316
4383	43.82000000	7.88138724	-0.82902021	6.16247447	8.40627079	0.62995870	2.91230125	9.43866600	1.83485072	0.44005119	8.81665943	-0.74374988	-0.28755484	5.91952500	-6.00804159	2.24230417	8.09593094	0.58033327	0.11689271	5.55396556	-2.34233985	7.88939083	6.27577346	-0.50810708	13.53573653
4384	43.83000000	8.03572510	-0.85330888	6.18692311	8.50889470	0.76361756	2.92637403	9.80018745	1.04577438	0.28131994	8.81021115	-0.64020496	-0.31452734	6.74653052	-5.89253097	1.62748868	7.88642374	0.31383834	-0.00496945	5.57513709	-2.31973877	7.87507704	7.00653596	-0.42335862	13.76005831
4385	43.84000000	8.13306302	-0.96112620	6.26992074	8.64846973	0.91536008	2.92548637	9.94584715	0.18728344	0.08506564	8.94380909	-0.47403543	-0.22514833	7.12561031	-5.66746859	1.30204744	8.03954064	0.23491144	0.49214938	5.37097269	-2.27115670	7.99123688	8.01527791	0.24529080	13.95752288
4386	43.85000000	8.23271749	-1.06007004	6.36255302	8.79394404	0.99194481	2.98372680	10.19062915	-0.33990322	0.11302861	9.03303317	-0.49528036	-0.19891164	7.22410942	-5.53017714	1.40471635	8.04646109	0.66719586	0.86783901	5.68029615	-2.31642895	7.87522855	8.96293900	1.04758693	14.28259922
4387	43.86000000	8.23422055	-1.16036291	6.45723832	8.83400181	1.02550895	2.99618433	10.26248831	-0.45580810	0.07542034	9.16558382	-0.48891199	-0.10833736	7.68307216	-5.55085328	1.53198982	7.97886719	0.78814872	0.84271945	5.68813964	-2.20681654	7.86660708	9.73123489	1.78947956	14.50300647
4388	43.87000000	8.23122326	-1.24386376	6.50193246	8.88625781	1.06135057	2.97136548	10.08880147	-0.03386510	0.17833336	9.18984714	-0.51431029	-0.08036810	8.45495299	-5.63819157	1.56155737	8.12917693	1.19023230	0.86132652	5.55739430	-2.26137510	7.93271788	10.18188847	2.22953930	14.45725073
4389	43.88000000	8.25714672	-1.32257384	6.48255894	8.92200357	1.01834328	3.04220890	9.90612466	0.47591174	0.29676599	9.18125955	-0.39883791	-0.04233574	8.86605182	-5.45044382	1.54464187	8.20115788	1.89000524	1.11960359	5.54263495	-2.26300894	8.00172151	10.30852077	2.53035454	14.24945239
4390	43.89000000	8.32627165	-1.41239896	6.48877439	8.95869408	1.06267879	3.00769769	9.90608192	0.69137848	0.14914994	9.17760812	-0.23909618	0.02530247	8.91998590	-4.81388744	1.88536100	8.33563244	2.62287316	1.72264739	5.74935963	-2.17011573	7.86901393	10.51244708	3.00807867	13.96903769
4391	43.90000000	8.42493677	-1.37964299	6.49631453	8.99736282	1.03414733	2.94802448	9.81168287	0.37855847	0.13159667	9.26690618	0.00796490	0.13161222	9.20925767	-3.96234314	2.47282851	8.59638854	2.95555829	1.71697970	5.75151719	-2.20240864	7.94472435	10.79845252	3.45700484	13.66090785
4392	43.91000000	8.44962999	-1.40193682	6.48868456	9.06121843	0.99835551	2.89775036	9.79240333	0.18602824	0.27525449	9.27649608	0.29963910	0.16794959	9.70773890	-3.03049071	3.05597702	8.97125128	3.45201281	1.61618905	5.56860054	-2.38020790	7.94945906	11.13653467	3.78203612	13.21015820
4393	43.92000000	8.51881573	-1.37422008	6.52060563	9.09687358	0.98751271	2.89816976	9.85537159	0.01027744	0.57917773	9.35448903	0.49617328	0.14910238	10.27040380	-2.00882700	3.39851921	9.14104523	3.94020498	1.57737986	5.48540204	-2.30492847	7.99200684	11.29871437	4.09223478	12.71704954
4394	43.93000000	8.53074411	-1.38848699	6.46313290	9.11449097	1.02717848	2.91595649	9.76596843	-0.19336952	0.69784562	9.35560551	0.61083469	0.13685132	10.81334576	-1.01182676	3.37254118	9.23127852	4.32701565	1.42044888	5.49848347	-2.34400181	8.03774699	11.56540021	4.19595564	12.47898493
4395	43.94000000	8.61628442	-1.31994048	6.40525641	9.14449914	1.11086774	2.83749466	9.72329614	-0.36498059	0.67116883	9.43470131	0.62986101	0.15694658	11.09961456	-0.16017045	3.33980065	9.28087525	4.56839886	1.49291979	5.61338133	-2.31330575	7.89977377	12.47690603	5.21788573	12.27722246
4396	43.95000000	8.74157107	-1.32302649	6.38498816	9.15327432	1.23299743	2.78678652	9.78307850	-0.52831260	0.82465059	9.49370599	0.57668940	0.13260863	11.36514560	0.56237596	3.27001633	8.76343656	4.59580222	1.80504467	5.40559371	-2.38984507	8.05735497	13.47168629	5.04258923	12.08008240
4397	43.96000000	8.86976674	-1.32573780	6.40350106	9.19803137	1.33990838	2.73223949	9.95527116	-0.19643923	0.76304638	9.64384351	0.35981811	0.19641781	11.83794682	1.11608435	3.16398442	8.96298997	4.74627486	2.04674963	5.41028868	-1.99891553	8.24904835	13.73425566	4.67416035	11.45649451
4398	43.97000000	8.89840100	-1.34432617	6.45323311	9.29815661	1.44486465	2.82203451	10.22961835	0.40296281	0.42698768	9.71488033	0.07316340	0.17840674	11.97550473	1.53063048	2.60322913	9.06289141	4.83397340	2.27993878	5.40365030	-1.89079290	8.35164014	12.85910872	3.17857282	10.69527649
4399	43.98000000	9.03879613	-1.30860041	6.47411238	9.40950984	1.56653411	2.95577675	10.29814865	0.94079549	0.48882920	9.66617385	-0.24939050	0.09837661	12.60101065	1.73503375	1.07486080	8.78218565	4.90601691	2.30969156	5.63612854	-1.93947529	8.08952811	11.20202303	0.56691779	9.71883473
4400	43.99000000	9.01029609	-1.32356386	6.46467786	9.46296925	1.58189205	3.01042763	10.03224056	1.22345829	0.55578757	9.71859538	-0.49436021	-0.14294449	12.44220268	2.05219468	0.89967686	8.41373398	5.14721694	2.49162565	5.72712139	-1.86121489	8.14931714	10.95563219	1.47694958	8.85027263
4401	44.00000000	8.95224536	-1.38650698	6.41189332	9.39847354	1.47455930	3.05819489	9.84216419	1.59945588	0.63817499	9.68791337	-0.60275772	-0.39824736	11.58205648	1.21737690	1.29676884	8.06699661	5.52669275	2.75433917	5.62096376	-1.77876429	8.23350880	11.44174522	0.84193075	7.67921686
4402	44.01000000	8.95228119	-1.45920975	6.43513825	9.29022662	1.34142080	2.94782732	9.84185346	1.89273355	0.70579978	9.50291466	-0.55842895	-0.41554261	11.34826117	0.70713672	0.65603027	7.82643813	5.93720897	2.79947935	5.52231500	-1.78621425	8.28148423	12.48855158	-0.08893777	6.41500483
4403	44.02000000	8.99486063	-1.51010184	6.38060636	9.03752298	1.27009296	2.86433641	9.86350322	1.90621410	0.76312809	9.47604359	-0.35782143	-0.35105450	10.59795144	2.37718670	0.78652755	7.59609563	6.13494514	2.53175492	5.33996387	-1.32527766	8.70835172	13.45849670	-1.08781587	5.19079057
4404	44.03000000	9.01018779	-1.50334502	6.36060133	8.92376872	1.34746131	2.83643549	9.93814114	1.86396056	0.70044632	9.61263409	-0.16392119	-0.19782493	9.63291774	4.44204952	1.80944161	7.70878271	6.19934911	2.26883292	5.32076790	-2.26433182	8.44347936	13.15639316	-1.82581671	4.13717429
4405	44.04000000	9.04561070	-1.54511086	6.28757781	8.92559399	1.39550357	2.56224311	10.14286215	2.04135833	0.24763849	9.96990877	0.14063330	-0.14041100	9.18939044	4.90269230	2.96547333	8.04142721	6.47605347	2.11069362	5.22353943	-2.51433554	8.41771384	12.54749871	-1.56066125	3.22035719
4406	44.05000000	9.13099669	-1.57864147	6.23665604	8.99989499	1.41732244	2.26775116	10.48571875	2.27177937	0.35941688	10.11378778	0.36689539	-0.07723827	9.18531544	3.98377635	3.53863252	8.30339158	6.57019165	1.65698063	5.53916871	-1.59194793	8.56328844	11.95208996	-1.84519816	2.92206944
4407	44.06000000	9.21889951	-1.62142298	6.26976139	9.01878250	1.53187412	2.03933873	10.51257000	2.11560131	0.92312514	10.09187624	0.60451978	-0.00616448	9.63449748	2.80618469	3.27087898	8.30732993	6.57582097	0.85472479	5.48621471	-1.90556604	8.47874849	11.24695489	-2.43637237	3.47430929
4408	44.07000000	9.29460659	-1.57230716	6.22078988	9.09004345	1.67296844	1.76323428	10.24847891	1.76701751	0.94018008	10.02316209	0.74929714	-0.03087985	9.87306134	1.75077824	2.44598413	8.26706668	6.40477986	1.03593839	5.66435748	-1.94027130	8.42722942	11.03366987	-2.44981514	4.38580156
4409	44.08000000	9.31141592	-1.49872767	6.20351638	9.11695495	1.75954604	1.48333648	10.12121083	1.47996065	0.63315809	10.07605325	0.84429677	-0.02501834	9.48051308	0.95118983	1.63468055	8.04316581	6.32247147	1.19947686	5.67542680	-1.98182634	8.42286066	10.07233971	-0.55165834	5.99043427
4410	44.09000000	9.34045988	-1.47572455	6.14917951	9.18136762	1.87715797	1.26535907	10.35911311	1.31620280	0.65158946	10.04015037	0.63715305	-0.03012040	8.81091439	-0.02403495	1.16664589	7.82023520	6.11058061	0.66642240	5.50622529	-1.97809046	8.50899976	10.55585035	3.57538606	6.09446896
4411	44.10000000	9.42532576	-1.45426003	6.14245430	9.11715426	1.92911695	1.19166029	10.49394092	1.18421623	0.77563036	9.93713583	0.33602282	0.03367754	8.41198728	-1.37070611	0.90333871	7.79630043	5.86856188	0.67954869	5.43108128	-2.15449129	8.52807194	11.77304420	2.17668791	4.20880837
4412	44.11000000	9.57689143	-1.40960406	6.16130704	9.04728309	1.91008654	1.05973126	10.43475525	1.08622113	0.73351004	9.80386137	-0.06587755	0.12081397	8.32466349	-1.84787452	0.56592400	7.35340000	6.08577355	0.89217508	5.70086428	-2.04289625	8.39446281	13.73909877	-3.08285851	2.71733648
4413	44.12000000	9.59868355	-1.33347374	6.12924998	9.14510898	1.90827973	1.05095834	10.22393778	1.01706955	0.87604925	9.76509748	-0.55131074	0.28345043	8.54137939	-1.98404709	0.71679459	6.85814584	6.09329604	0.82819740	5.80362862	-2.09693816	8.34774715	10.04650455	-5.40984329	2.08344813
4414	44.13000000	9.62507582	-1.27698943	6.18790759	9.34518342	1.88441681	1.47601593	10.26504947	0.81804967	1.16914634	9.73190960	-1.03417781	0.35096505	9.09699904	-2.68996559	1.14410320	6.64137946	6.05335606	1.00911967	5.72817180	-2.20604551	8.44385129	4.51606417	-1.73516547	7.64148141
